<svg width="512" height="512" viewBox="0 0 512 512" xmlns="http://www.w3.org/2000/svg">
  <!-- Background -->
  <rect x="32" y="32" width="448" height="448" rx="112" fill="#020617"></rect>

  <!-- Subtle inner glow / border -->
  <rect x="52" y="52" width="408" height="408" rx="102" fill="none" stroke="#111827" stroke-width="8"></rect>

  <!-- Location pin body -->
  <g transform="translate(0, -10)">
    <path d="M256 128
         C213 128 178 163 178 206
         C178 257 222 309 246 340
         C250 345 255 352 256 352
         C257 352 262 345 266 340
         C290 309 334 257 334 206
         C334 163 299 128 256 128Z" fill="#38BDF8"></path>

    <!-- Inner circle -->
    <circle cx="256" cy="205" r="40" fill="#FFFFFF"></circle>

    <!-- Checkmark -->
    <path d="M242 205 L252 215 L272 195" fill="none" stroke="#38BDF8" stroke-width="8" stroke-linecap="round" stroke-linejoin="round"></path>
  </g>

  <!-- Shadow under pin -->
  <ellipse cx="256" cy="360" rx="70" ry="14" fill="#020617" opacity="0.7"></ellipse>
</svg>
